<svg xmlns="http://www.w3.org/2000/svg" xmlns:xlink="http://www.w3.org/1999/xlink" width="500" zoomAndPan="magnify" viewBox="0 0 375 374.999991" height="500" preserveAspectRatio="xMidYMid meet" version="1.0"><defs><g/></defs><g fill="#504939" fill-opacity="1"><g transform="translate(52.538679, 209.61145)"><g><path d="M 4.015625 0 L 4.015625 -41.28125 L 19.28125 -41.28125 C 22.582031 -41.28125 25.3125 -40.726562 27.46875 -39.625 C 29.632812 -38.519531 31.25 -37.003906 32.3125 -35.078125 C 33.375 -33.160156 33.90625 -31 33.90625 -28.59375 C 33.90625 -26.3125 33.394531 -24.21875 32.375 -22.3125 C 31.351562 -20.40625 29.757812 -18.875 27.59375 -17.71875 C 25.4375 -16.5625 22.664062 -15.984375 19.28125 -15.984375 L 11.5625 -15.984375 L 11.5625 0 Z M 11.5625 -22.109375 L 18.8125 -22.109375 C 21.445312 -22.109375 23.34375 -22.6875 24.5 -23.84375 C 25.65625 -25.007812 26.234375 -26.59375 26.234375 -28.59375 C 26.234375 -30.644531 25.65625 -32.25 24.5 -33.40625 C 23.34375 -34.5625 21.445312 -35.140625 18.8125 -35.140625 L 11.5625 -35.140625 Z M 11.5625 -22.109375 "/></g></g></g><g fill="#504939" fill-opacity="1"><g transform="translate(88.329844, 209.61145)"><g><path d="M 1.359375 0 L 16.453125 -41.28125 L 24.9375 -41.28125 L 40.046875 0 L 32.015625 0 L 28.71875 -9.546875 L 12.625 -9.546875 L 9.265625 0 Z M 14.6875 -15.453125 L 26.65625 -15.453125 L 20.640625 -32.609375 Z M 14.6875 -15.453125 "/></g></g></g><g fill="#504939" fill-opacity="1"><g transform="translate(129.663636, 209.61145)"><g><path d="M 4.015625 0 L 4.015625 -41.28125 L 11.5625 -41.28125 L 11.5625 -24.125 L 30.078125 -24.125 L 30.078125 -41.28125 L 37.625 -41.28125 L 37.625 0 L 30.078125 0 L 30.078125 -17.984375 L 11.5625 -17.984375 L 11.5625 0 Z M 4.015625 0 "/></g></g></g><g fill="#504939" fill-opacity="1"><g transform="translate(171.292226, 209.61145)"><g><path d="M 4.015625 0 L 4.015625 -41.28125 L 11.5625 -41.28125 L 11.5625 0 Z M 4.015625 0 "/></g></g></g><g fill="#504939" fill-opacity="1"><g transform="translate(186.858721, 209.61145)"><g><path d="M 22.703125 0.703125 C 18.535156 0.703125 14.957031 -0.1875 11.96875 -1.96875 C 8.976562 -3.757812 6.675781 -6.253906 5.0625 -9.453125 C 3.457031 -12.660156 2.65625 -16.367188 2.65625 -20.578125 C 2.65625 -24.785156 3.457031 -28.5 5.0625 -31.71875 C 6.675781 -34.945312 8.976562 -37.460938 11.96875 -39.265625 C 14.957031 -41.078125 18.535156 -41.984375 22.703125 -41.984375 C 27.660156 -41.984375 31.71875 -40.753906 34.875 -38.296875 C 38.039062 -35.835938 40.019531 -32.390625 40.8125 -27.953125 L 32.484375 -27.953125 C 31.972656 -30.191406 30.882812 -31.945312 29.21875 -33.21875 C 27.550781 -34.5 25.335938 -35.140625 22.578125 -35.140625 C 18.765625 -35.140625 15.773438 -33.84375 13.609375 -31.25 C 11.453125 -28.65625 10.375 -25.097656 10.375 -20.578125 C 10.375 -16.054688 11.453125 -12.507812 13.609375 -9.9375 C 15.773438 -7.363281 18.765625 -6.078125 22.578125 -6.078125 C 25.335938 -6.078125 27.550781 -6.675781 29.21875 -7.875 C 30.882812 -9.070312 31.972656 -10.734375 32.484375 -12.859375 L 40.8125 -12.859375 C 40.019531 -8.609375 38.039062 -5.285156 34.875 -2.890625 C 31.71875 -0.492188 27.660156 0.703125 22.703125 0.703125 Z M 22.703125 0.703125 "/></g></g></g><g fill="#504939" fill-opacity="1"><g transform="translate(230.315199, 209.61145)"><g><path d="M 4.015625 0 L 4.015625 -41.28125 L 11.5625 -41.28125 L 11.5625 -24.125 L 30.078125 -24.125 L 30.078125 -41.28125 L 37.625 -41.28125 L 37.625 0 L 30.078125 0 L 30.078125 -17.984375 L 11.5625 -17.984375 L 11.5625 0 Z M 4.015625 0 "/></g></g></g><g fill="#504939" fill-opacity="1"><g transform="translate(271.943788, 209.61145)"><g><path d="M 1.359375 0 L 16.453125 -41.28125 L 24.9375 -41.28125 L 40.046875 0 L 32.015625 0 L 28.71875 -9.546875 L 12.625 -9.546875 L 9.265625 0 Z M 14.6875 -15.453125 L 26.65625 -15.453125 L 20.640625 -32.609375 Z M 14.6875 -15.453125 "/></g></g></g><g fill="#504939" fill-opacity="1"><g transform="translate(313.277581, 209.61145)"><g><path d="M 4.015625 0 L 4.015625 -41.28125 L 11.5625 -41.28125 L 30.953125 -12.203125 L 30.953125 -41.28125 L 38.5 -41.28125 L 38.5 0 L 30.953125 0 L 11.5625 -29.015625 L 11.5625 0 Z M 4.015625 0 "/></g></g></g><g fill="#ba4b32" fill-opacity="1"><g transform="translate(15.560931, 205.926212)"><g><path d="M 16.984375 -37.265625 C 20.398438 -37.265625 23.003906 -36.457031 24.796875 -34.84375 C 26.585938 -33.238281 27.484375 -31.117188 27.484375 -28.484375 C 27.484375 -26.984375 27.226562 -25.535156 26.71875 -24.140625 C 26.207031 -22.742188 25.191406 -21.25 23.671875 -19.65625 C 22.160156 -18.070312 19.910156 -16.257812 16.921875 -14.21875 L 23.296875 -9.375 C 24.941406 -8.15625 26.109375 -6.972656 26.796875 -5.828125 C 27.484375 -4.691406 27.828125 -3.398438 27.828125 -1.953125 C 27.828125 -0.691406 27.582031 0.59375 27.09375 1.90625 C 26.601562 3.226562 25.726562 4.554688 24.46875 5.890625 L 18.453125 1.65625 C 18.890625 1.144531 19.222656 0.679688 19.453125 0.265625 C 19.691406 -0.148438 19.8125 -0.648438 19.8125 -1.234375 C 19.8125 -2.410156 18.90625 -3.707031 17.09375 -5.125 L 6.25 -13.734375 L 6.84375 -16.8125 C 11.238281 -19.4375 14.4375 -21.613281 16.4375 -23.34375 C 18.445312 -25.082031 19.453125 -26.753906 19.453125 -28.359375 C 19.453125 -29.148438 19.226562 -29.789062 18.78125 -30.28125 C 18.332031 -30.769531 17.554688 -31.015625 16.453125 -31.015625 C 15.472656 -31.015625 14.742188 -30.785156 14.265625 -30.328125 C 13.796875 -29.878906 13.5625 -29.363281 13.5625 -28.78125 C 13.5625 -28.144531 13.773438 -27.609375 14.203125 -27.171875 C 14.640625 -26.742188 15.3125 -26.316406 16.21875 -25.890625 L 11.734375 -22.109375 C 10.359375 -22.941406 9.148438 -23.925781 8.109375 -25.0625 C 7.066406 -26.195312 6.546875 -27.75 6.546875 -29.71875 C 6.546875 -30.976562 6.910156 -32.1875 7.640625 -33.34375 C 8.367188 -34.507812 9.5 -35.453125 11.03125 -36.171875 C 12.5625 -36.898438 14.546875 -37.265625 16.984375 -37.265625 Z M 16.984375 -37.265625 "/></g></g></g><g fill="#ba4b32" fill-opacity="1"><g transform="translate(49.18878, 205.926212)"><g/></g></g></svg>