<svg xmlns="http://www.w3.org/2000/svg" xmlns:xlink="http://www.w3.org/1999/xlink" width="500"
    zoomAndPan="magnify" viewBox="0 0 375 374.999991" height="500"
    preserveAspectRatio="xMidYMid meet" version="1.0">
    <defs>
        <g />
        <clipPath id="f5876ef9ce">
            <path
                d="M 23.832031 167.886719 L 56 167.886719 L 56 209.886719 L 23.832031 209.886719 Z M 23.832031 167.886719 "
                clip-rule="nonzero" />
        </clipPath>
        <clipPath id="90ee9c12aa">
            <path
                d="M 60 167.886719 L 92.832031 167.886719 L 92.832031 209.886719 L 60 209.886719 Z M 60 167.886719 "
                clip-rule="nonzero" />
        </clipPath>
    </defs>
    <g fill="#504939" fill-opacity="1">
        <g transform="translate(130.591565, 203.608009)">
            <g>
                <path
                    d="M 2.921875 0 L 2.921875 -30.0625 L 14.046875 -30.0625 C 16.453125 -30.0625 18.441406 -29.660156 20.015625 -28.859375 C 21.585938 -28.054688 22.757812 -26.953125 23.53125 -25.546875 C 24.3125 -24.148438 24.703125 -22.578125 24.703125 -20.828125 C 24.703125 -19.171875 24.328125 -17.644531 23.578125 -16.25 C 22.835938 -14.863281 21.675781 -13.75 20.09375 -12.90625 C 18.519531 -12.0625 16.503906 -11.640625 14.046875 -11.640625 L 8.421875 -11.640625 L 8.421875 0 Z M 8.421875 -16.109375 L 13.703125 -16.109375 C 15.617188 -16.109375 17 -16.53125 17.84375 -17.375 C 18.6875 -18.21875 19.109375 -19.367188 19.109375 -20.828125 C 19.109375 -22.316406 18.6875 -23.484375 17.84375 -24.328125 C 17 -25.171875 15.617188 -25.59375 13.703125 -25.59375 L 8.421875 -25.59375 Z M 8.421875 -16.109375 " />
            </g>
        </g>
    </g>
    <g fill="#504939" fill-opacity="1">
        <g transform="translate(156.665149, 203.608009)">
            <g>
                <path
                    d="M 0.984375 0 L 11.984375 -30.0625 L 18.171875 -30.0625 L 29.171875 0 L 23.328125 0 L 20.921875 -6.953125 L 9.1875 -6.953125 L 6.75 0 Z M 10.6875 -11.25 L 19.421875 -11.25 L 15.03125 -23.75 Z M 10.6875 -11.25 " />
            </g>
        </g>
    </g>
    <g fill="#504939" fill-opacity="1">
        <g transform="translate(186.776494, 203.608009)">
            <g>
                <path
                    d="M 2.921875 0 L 2.921875 -30.0625 L 8.421875 -30.0625 L 8.421875 -17.5625 L 21.90625 -17.5625 L 21.90625 -30.0625 L 27.40625 -30.0625 L 27.40625 0 L 21.90625 0 L 21.90625 -13.09375 L 8.421875 -13.09375 L 8.421875 0 Z M 2.921875 0 " />
            </g>
        </g>
    </g>
    <g fill="#504939" fill-opacity="1">
        <g transform="translate(217.102597, 203.608009)">
            <g>
                <path
                    d="M 2.921875 0 L 2.921875 -30.0625 L 8.421875 -30.0625 L 8.421875 0 Z M 2.921875 0 " />
            </g>
        </g>
    </g>
    <g fill="#504939" fill-opacity="1">
        <g transform="translate(228.442667, 203.608009)">
            <g>
                <path
                    d="M 16.53125 0.515625 C 13.5 0.515625 10.894531 -0.132812 8.71875 -1.4375 C 6.539062 -2.738281 4.863281 -4.554688 3.6875 -6.890625 C 2.519531 -9.222656 1.9375 -11.921875 1.9375 -14.984375 C 1.9375 -18.054688 2.519531 -20.765625 3.6875 -23.109375 C 4.863281 -25.453125 6.539062 -27.28125 8.71875 -28.59375 C 10.894531 -29.914062 13.5 -30.578125 16.53125 -30.578125 C 20.144531 -30.578125 23.101562 -29.679688 25.40625 -27.890625 C 27.707031 -26.109375 29.144531 -23.597656 29.71875 -20.359375 L 23.671875 -20.359375 C 23.296875 -21.992188 22.5 -23.273438 21.28125 -24.203125 C 20.0625 -25.128906 18.453125 -25.59375 16.453125 -25.59375 C 13.671875 -25.59375 11.492188 -24.648438 9.921875 -22.765625 C 8.347656 -20.878906 7.5625 -18.285156 7.5625 -14.984375 C 7.5625 -11.691406 8.347656 -9.109375 9.921875 -7.234375 C 11.492188 -5.359375 13.671875 -4.421875 16.453125 -4.421875 C 18.453125 -4.421875 20.0625 -4.859375 21.28125 -5.734375 C 22.5 -6.609375 23.296875 -7.816406 23.671875 -9.359375 L 29.71875 -9.359375 C 29.144531 -6.265625 27.707031 -3.84375 25.40625 -2.09375 C 23.101562 -0.351562 20.144531 0.515625 16.53125 0.515625 Z M 16.53125 0.515625 " />
            </g>
        </g>
    </g>
    <g fill="#504939" fill-opacity="1">
        <g transform="translate(260.100372, 203.608009)">
            <g>
                <path
                    d="M 2.921875 0 L 2.921875 -30.0625 L 8.421875 -30.0625 L 8.421875 -17.5625 L 21.90625 -17.5625 L 21.90625 -30.0625 L 27.40625 -30.0625 L 27.40625 0 L 21.90625 0 L 21.90625 -13.09375 L 8.421875 -13.09375 L 8.421875 0 Z M 2.921875 0 " />
            </g>
        </g>
    </g>
    <g fill="#504939" fill-opacity="1">
        <g transform="translate(290.426475, 203.608009)">
            <g>
                <path
                    d="M 0.984375 0 L 11.984375 -30.0625 L 18.171875 -30.0625 L 29.171875 0 L 23.328125 0 L 20.921875 -6.953125 L 9.1875 -6.953125 L 6.75 0 Z M 10.6875 -11.25 L 19.421875 -11.25 L 15.03125 -23.75 Z M 10.6875 -11.25 " />
            </g>
        </g>
    </g>
    <g fill="#504939" fill-opacity="1">
        <g transform="translate(320.53782, 203.608009)">
            <g>
                <path
                    d="M 2.921875 0 L 2.921875 -30.0625 L 8.421875 -30.0625 L 22.546875 -8.890625 L 22.546875 -30.0625 L 28.046875 -30.0625 L 28.046875 0 L 22.546875 0 L 8.421875 -21.140625 L 8.421875 0 Z M 2.921875 0 " />
            </g>
        </g>
    </g>
    <g fill="#ba4b32" fill-opacity="1">
        <g transform="translate(103.653578, 200.923347)">
            <g>
                <path
                    d="M 12.375 -27.140625 C 14.863281 -27.140625 16.757812 -26.550781 18.0625 -25.375 C 19.363281 -24.207031 20.015625 -22.664062 20.015625 -20.75 C 20.015625 -19.65625 19.828125 -18.597656 19.453125 -17.578125 C 19.085938 -16.566406 18.351562 -15.476562 17.25 -14.3125 C 16.144531 -13.15625 14.503906 -11.835938 12.328125 -10.359375 L 16.96875 -6.828125 C 18.164062 -5.941406 19.015625 -5.082031 19.515625 -4.25 C 20.023438 -3.414062 20.28125 -2.472656 20.28125 -1.421875 C 20.28125 -0.503906 20.097656 0.429688 19.734375 1.390625 C 19.378906 2.347656 18.742188 3.316406 17.828125 4.296875 L 13.4375 1.203125 C 13.757812 0.828125 14.003906 0.488281 14.171875 0.1875 C 14.347656 -0.101562 14.4375 -0.46875 14.4375 -0.90625 C 14.4375 -1.757812 13.773438 -2.703125 12.453125 -3.734375 L 4.546875 -10.015625 L 4.984375 -12.234375 C 8.191406 -14.160156 10.523438 -15.753906 11.984375 -17.015625 C 13.441406 -18.273438 14.171875 -19.488281 14.171875 -20.65625 C 14.171875 -21.226562 14.003906 -21.691406 13.671875 -22.046875 C 13.347656 -22.410156 12.785156 -22.59375 11.984375 -22.59375 C 11.265625 -22.59375 10.734375 -22.425781 10.390625 -22.09375 C 10.046875 -21.769531 9.875 -21.394531 9.875 -20.96875 C 9.875 -20.507812 10.03125 -20.117188 10.34375 -19.796875 C 10.664062 -19.484375 11.15625 -19.171875 11.8125 -18.859375 L 8.546875 -16.109375 C 7.546875 -16.710938 6.664062 -17.425781 5.90625 -18.25 C 5.144531 -19.082031 4.765625 -20.210938 4.765625 -21.640625 C 4.765625 -22.554688 5.03125 -23.4375 5.5625 -24.28125 C 6.09375 -25.132812 6.914062 -25.820312 8.03125 -26.34375 C 9.144531 -26.875 10.59375 -27.140625 12.375 -27.140625 Z M 12.375 -27.140625 " />
            </g>
        </g>
    </g>
    <g fill="#ba4b32" fill-opacity="1">
        <g transform="translate(128.151205, 200.923347)">
            <g />
        </g>
    </g>
    <g clip-path="url(#f5876ef9ce)">
        <path fill="#504939"
            d="M 55.839844 167.957031 L 48.28125 167.957031 C 48.28125 174.6875 44.527344 179.421875 36.78125 182.429688 C 32.601562 183.980469 28.285156 184.867188 23.832031 185.09375 L 23.921875 188.941406 L 23.832031 192.671875 C 24.078125 192.671875 48.277344 193.414062 48.277344 209.808594 L 55.839844 209.808594 C 55.839844 200.335938 50.722656 193.132812 41.011719 188.882812 C 50.722656 184.636719 55.839844 177.433594 55.839844 167.957031 Z M 55.839844 167.957031 "
            fill-opacity="1" fill-rule="nonzero" />
    </g>
    <g clip-path="url(#90ee9c12aa)">
        <path fill="#504939"
            d="M 92.832031 185.09375 C 88.375 184.867188 84.054688 183.980469 79.867188 182.429688 C 72.136719 179.421875 68.367188 174.6875 68.367188 167.957031 L 60.828125 167.957031 C 60.828125 177.433594 65.945312 184.636719 75.65625 188.882812 C 65.945312 193.132812 60.828125 200.335938 60.828125 209.808594 L 68.386719 209.808594 C 68.386719 203.078125 72.136719 198.34375 79.886719 195.339844 C 84.066406 193.792969 88.382812 192.90625 92.832031 192.671875 L 92.746094 188.882812 Z M 92.832031 185.09375 "
            fill-opacity="1" fill-rule="nonzero" />
    </g>
    <path fill="#ba4b32"
        d="M 64.984375 188.882812 C 64.984375 189.320312 64.941406 189.753906 64.859375 190.183594 C 64.773438 190.613281 64.644531 191.03125 64.480469 191.4375 C 64.3125 191.839844 64.105469 192.226562 63.863281 192.589844 C 63.621094 192.953125 63.347656 193.292969 63.039062 193.601562 C 62.726562 193.910156 62.390625 194.1875 62.027344 194.433594 C 61.667969 194.675781 61.28125 194.878906 60.878906 195.046875 C 60.476562 195.214844 60.058594 195.34375 59.632812 195.429688 C 59.203125 195.515625 58.769531 195.554688 58.332031 195.554688 C 57.898438 195.554688 57.464844 195.515625 57.035156 195.429688 C 56.609375 195.34375 56.191406 195.214844 55.789062 195.046875 C 55.386719 194.878906 55 194.675781 54.636719 194.433594 C 54.273438 194.1875 53.9375 193.910156 53.628906 193.601562 C 53.320312 193.292969 53.046875 192.953125 52.804688 192.589844 C 52.5625 192.226562 52.355469 191.839844 52.1875 191.4375 C 52.019531 191.03125 51.894531 190.613281 51.808594 190.183594 C 51.726562 189.753906 51.683594 189.320312 51.683594 188.882812 C 51.683594 188.445312 51.726562 188.011719 51.808594 187.582031 C 51.894531 187.152344 52.019531 186.734375 52.1875 186.328125 C 52.355469 185.925781 52.5625 185.539062 52.804688 185.175781 C 53.046875 184.8125 53.320312 184.472656 53.628906 184.164062 C 53.9375 183.855469 54.273438 183.578125 54.636719 183.335938 C 55 183.089844 55.386719 182.886719 55.789062 182.71875 C 56.191406 182.550781 56.609375 182.421875 57.035156 182.339844 C 57.464844 182.253906 57.898438 182.210938 58.332031 182.210938 C 58.769531 182.210938 59.203125 182.253906 59.632812 182.339844 C 60.058594 182.421875 60.476562 182.550781 60.878906 182.71875 C 61.28125 182.886719 61.667969 183.089844 62.027344 183.335938 C 62.390625 183.578125 62.726562 183.855469 63.039062 184.164062 C 63.347656 184.472656 63.621094 184.8125 63.863281 185.175781 C 64.105469 185.539062 64.3125 185.925781 64.480469 186.328125 C 64.644531 186.734375 64.773438 187.152344 64.859375 187.582031 C 64.941406 188.011719 64.984375 188.445312 64.984375 188.882812 Z M 64.984375 188.882812 "
        fill-opacity="1" fill-rule="nonzero" />
</svg>