<svg xmlns="http://www.w3.org/2000/svg" xmlns:xlink="http://www.w3.org/1999/xlink" width="500" zoomAndPan="magnify" viewBox="0 0 375 374.999991" height="500" preserveAspectRatio="xMidYMid meet" version="1.0"><defs><clipPath id="b326a83323"><path d="M 10.625 80.195312 L 175 80.195312 L 175 294.695312 L 10.625 294.695312 Z M 10.625 80.195312 " clip-rule="nonzero"/></clipPath><clipPath id="86a25b1b79"><path d="M 200 80.195312 L 364.625 80.195312 L 364.625 294.695312 L 200 294.695312 Z M 200 80.195312 " clip-rule="nonzero"/></clipPath></defs><g clip-path="url(#b326a83323)"><path fill="#504939" d="M 174.832031 80.550781 L 136.058594 80.550781 C 136.058594 114.917969 116.800781 139.101562 77.058594 154.46875 C 55.605469 162.375 33.460938 166.910156 10.625 168.070312 L 11.074219 187.726562 L 10.625 206.773438 C 11.875 206.773438 136.035156 210.570312 136.035156 294.292969 L 174.832031 294.292969 C 174.832031 245.925781 148.566406 209.132812 98.746094 187.421875 C 148.566406 165.734375 174.832031 128.941406 174.832031 80.550781 Z M 174.832031 80.550781 " fill-opacity="1" fill-rule="nonzero"/></g><g clip-path="url(#86a25b1b79)"><path fill="#504939" d="M 364.625 168.070312 C 341.753906 166.921875 319.578125 162.386719 298.097656 154.46875 C 258.449219 139.101562 239.097656 114.917969 239.097656 80.550781 L 200.414062 80.550781 C 200.414062 128.941406 226.683594 165.734375 276.5 187.421875 C 226.683594 209.132812 200.414062 245.925781 200.414062 294.292969 L 239.191406 294.292969 C 239.191406 259.925781 258.449219 235.742188 298.191406 220.398438 C 319.644531 212.503906 341.789062 207.960938 364.625 206.773438 L 364.175781 187.421875 Z M 364.625 168.070312 " fill-opacity="1" fill-rule="nonzero"/></g><path fill="#ba4b32" d="M 221.75 187.421875 C 221.75 188.539062 221.695312 189.652344 221.585938 190.761719 C 221.476562 191.875 221.3125 192.976562 221.09375 194.070312 C 220.875 195.167969 220.605469 196.246094 220.28125 197.316406 C 219.957031 198.382812 219.578125 199.433594 219.152344 200.464844 C 218.722656 201.496094 218.246094 202.503906 217.71875 203.488281 C 217.195312 204.472656 216.621094 205.429688 216 206.359375 C 215.378906 207.285156 214.710938 208.179688 214.003906 209.042969 C 213.292969 209.90625 212.546875 210.734375 211.753906 211.523438 C 210.964844 212.3125 210.136719 213.0625 209.273438 213.769531 C 208.410156 214.476562 207.511719 215.140625 206.582031 215.761719 C 205.652344 216.382812 204.695312 216.953125 203.710938 217.480469 C 202.726562 218.007812 201.714844 218.484375 200.683594 218.910156 C 199.652344 219.339844 198.601562 219.714844 197.53125 220.039062 C 196.460938 220.363281 195.378906 220.632812 194.28125 220.851562 C 193.1875 221.070312 192.082031 221.230469 190.96875 221.339844 C 189.855469 221.449219 188.742188 221.503906 187.625 221.503906 C 186.507812 221.503906 185.390625 221.449219 184.28125 221.339844 C 183.167969 221.230469 182.0625 221.070312 180.964844 220.851562 C 179.871094 220.632812 178.789062 220.363281 177.71875 220.039062 C 176.648438 219.714844 175.597656 219.339844 174.566406 218.910156 C 173.53125 218.484375 172.523438 218.007812 171.539062 217.480469 C 170.550781 216.953125 169.59375 216.382812 168.664062 215.761719 C 167.734375 215.140625 166.839844 214.476562 165.976562 213.769531 C 165.109375 213.0625 164.285156 212.3125 163.492188 211.523438 C 162.703125 210.734375 161.953125 209.90625 161.246094 209.042969 C 160.535156 208.179688 159.871094 207.285156 159.25 206.359375 C 158.628906 205.429688 158.054688 204.472656 157.527344 203.488281 C 157 202.503906 156.523438 201.496094 156.097656 200.464844 C 155.667969 199.433594 155.292969 198.382812 154.96875 197.316406 C 154.644531 196.246094 154.371094 195.167969 154.15625 194.070312 C 153.9375 192.976562 153.773438 191.875 153.664062 190.761719 C 153.554688 189.652344 153.5 188.539062 153.5 187.421875 C 153.5 186.304688 153.554688 185.191406 153.664062 184.082031 C 153.773438 182.96875 153.9375 181.867188 154.15625 180.773438 C 154.371094 179.675781 154.644531 178.597656 154.96875 177.527344 C 155.292969 176.460938 155.667969 175.410156 156.097656 174.378906 C 156.523438 173.347656 157 172.339844 157.527344 171.355469 C 158.054688 170.371094 158.628906 169.414062 159.25 168.484375 C 159.871094 167.558594 160.535156 166.660156 161.246094 165.800781 C 161.953125 164.9375 162.703125 164.109375 163.492188 163.320312 C 164.285156 162.53125 165.109375 161.78125 165.976562 161.074219 C 166.839844 160.367188 167.734375 159.703125 168.664062 159.082031 C 169.59375 158.460938 170.550781 157.886719 171.539062 157.363281 C 172.523438 156.835938 173.53125 156.359375 174.566406 155.933594 C 175.597656 155.503906 176.648438 155.128906 177.71875 154.804688 C 178.789062 154.480469 179.871094 154.210938 180.964844 153.992188 C 182.0625 153.773438 183.167969 153.613281 184.28125 153.503906 C 185.390625 153.390625 186.507812 153.335938 187.625 153.335938 C 188.742188 153.335938 189.855469 153.390625 190.96875 153.503906 C 192.082031 153.613281 193.1875 153.773438 194.28125 153.992188 C 195.378906 154.210938 196.460938 154.480469 197.53125 154.804688 C 198.601562 155.128906 199.652344 155.503906 200.683594 155.933594 C 201.714844 156.359375 202.726562 156.835938 203.710938 157.363281 C 204.695312 157.886719 205.652344 158.460938 206.582031 159.082031 C 207.511719 159.703125 208.410156 160.367188 209.273438 161.074219 C 210.136719 161.78125 210.964844 162.53125 211.753906 163.320312 C 212.546875 164.109375 213.292969 164.9375 214.003906 165.800781 C 214.710938 166.660156 215.378906 167.558594 216 168.484375 C 216.621094 169.414062 217.195312 170.371094 217.71875 171.355469 C 218.246094 172.339844 218.722656 173.347656 219.152344 174.378906 C 219.578125 175.410156 219.957031 176.460938 220.28125 177.527344 C 220.605469 178.597656 220.875 179.675781 221.09375 180.773438 C 221.3125 181.867188 221.476562 182.96875 221.585938 184.082031 C 221.695312 185.191406 221.75 186.304688 221.75 187.421875 Z M 221.75 187.421875 " fill-opacity="1" fill-rule="nonzero"/></svg>