<svg xmlns="http://www.w3.org/2000/svg" xmlns:xlink="http://www.w3.org/1999/xlink" width="500" zoomAndPan="magnify" viewBox="0 0 375 374.999991" height="500" preserveAspectRatio="xMidYMid meet" version="1.0"><defs><g/><clipPath id="7ab15c3aae"><path d="M 152.960938 135.359375 L 185 135.359375 L 185 177.359375 L 152.960938 177.359375 Z M 152.960938 135.359375 " clip-rule="nonzero"/></clipPath><clipPath id="e1aec30e08"><path d="M 189 135.359375 L 221.960938 135.359375 L 221.960938 177.359375 L 189 177.359375 Z M 189 135.359375 " clip-rule="nonzero"/></clipPath></defs><g fill="#504939" fill-opacity="1"><g transform="translate(89.181715, 228.741371)"><g><path d="M 2.921875 0 L 2.921875 -30.0625 L 14.046875 -30.0625 C 16.453125 -30.0625 18.441406 -29.660156 20.015625 -28.859375 C 21.585938 -28.054688 22.757812 -26.953125 23.53125 -25.546875 C 24.3125 -24.148438 24.703125 -22.578125 24.703125 -20.828125 C 24.703125 -19.171875 24.328125 -17.644531 23.578125 -16.25 C 22.835938 -14.863281 21.675781 -13.75 20.09375 -12.90625 C 18.519531 -12.0625 16.503906 -11.640625 14.046875 -11.640625 L 8.421875 -11.640625 L 8.421875 0 Z M 8.421875 -16.109375 L 13.703125 -16.109375 C 15.617188 -16.109375 17 -16.53125 17.84375 -17.375 C 18.6875 -18.21875 19.109375 -19.367188 19.109375 -20.828125 C 19.109375 -22.316406 18.6875 -23.484375 17.84375 -24.328125 C 17 -25.171875 15.617188 -25.59375 13.703125 -25.59375 L 8.421875 -25.59375 Z M 8.421875 -16.109375 "/></g></g></g><g fill="#504939" fill-opacity="1"><g transform="translate(115.2553, 228.741371)"><g><path d="M 0.984375 0 L 11.984375 -30.0625 L 18.171875 -30.0625 L 29.171875 0 L 23.328125 0 L 20.921875 -6.953125 L 9.1875 -6.953125 L 6.75 0 Z M 10.6875 -11.25 L 19.421875 -11.25 L 15.03125 -23.75 Z M 10.6875 -11.25 "/></g></g></g><g fill="#504939" fill-opacity="1"><g transform="translate(145.366645, 228.741371)"><g><path d="M 2.921875 0 L 2.921875 -30.0625 L 8.421875 -30.0625 L 8.421875 -17.5625 L 21.90625 -17.5625 L 21.90625 -30.0625 L 27.40625 -30.0625 L 27.40625 0 L 21.90625 0 L 21.90625 -13.09375 L 8.421875 -13.09375 L 8.421875 0 Z M 2.921875 0 "/></g></g></g><g fill="#504939" fill-opacity="1"><g transform="translate(175.692748, 228.741371)"><g><path d="M 2.921875 0 L 2.921875 -30.0625 L 8.421875 -30.0625 L 8.421875 0 Z M 2.921875 0 "/></g></g></g><g fill="#504939" fill-opacity="1"><g transform="translate(187.032818, 228.741371)"><g><path d="M 16.53125 0.515625 C 13.5 0.515625 10.894531 -0.132812 8.71875 -1.4375 C 6.539062 -2.738281 4.863281 -4.554688 3.6875 -6.890625 C 2.519531 -9.222656 1.9375 -11.921875 1.9375 -14.984375 C 1.9375 -18.054688 2.519531 -20.765625 3.6875 -23.109375 C 4.863281 -25.453125 6.539062 -27.28125 8.71875 -28.59375 C 10.894531 -29.914062 13.5 -30.578125 16.53125 -30.578125 C 20.144531 -30.578125 23.101562 -29.679688 25.40625 -27.890625 C 27.707031 -26.109375 29.144531 -23.597656 29.71875 -20.359375 L 23.671875 -20.359375 C 23.296875 -21.992188 22.5 -23.273438 21.28125 -24.203125 C 20.0625 -25.128906 18.453125 -25.59375 16.453125 -25.59375 C 13.671875 -25.59375 11.492188 -24.648438 9.921875 -22.765625 C 8.347656 -20.878906 7.5625 -18.285156 7.5625 -14.984375 C 7.5625 -11.691406 8.347656 -9.109375 9.921875 -7.234375 C 11.492188 -5.359375 13.671875 -4.421875 16.453125 -4.421875 C 18.453125 -4.421875 20.0625 -4.859375 21.28125 -5.734375 C 22.5 -6.609375 23.296875 -7.816406 23.671875 -9.359375 L 29.71875 -9.359375 C 29.144531 -6.265625 27.707031 -3.84375 25.40625 -2.09375 C 23.101562 -0.351562 20.144531 0.515625 16.53125 0.515625 Z M 16.53125 0.515625 "/></g></g></g><g fill="#504939" fill-opacity="1"><g transform="translate(218.690523, 228.741371)"><g><path d="M 2.921875 0 L 2.921875 -30.0625 L 8.421875 -30.0625 L 8.421875 -17.5625 L 21.90625 -17.5625 L 21.90625 -30.0625 L 27.40625 -30.0625 L 27.40625 0 L 21.90625 0 L 21.90625 -13.09375 L 8.421875 -13.09375 L 8.421875 0 Z M 2.921875 0 "/></g></g></g><g fill="#504939" fill-opacity="1"><g transform="translate(249.016625, 228.741371)"><g><path d="M 0.984375 0 L 11.984375 -30.0625 L 18.171875 -30.0625 L 29.171875 0 L 23.328125 0 L 20.921875 -6.953125 L 9.1875 -6.953125 L 6.75 0 Z M 10.6875 -11.25 L 19.421875 -11.25 L 15.03125 -23.75 Z M 10.6875 -11.25 "/></g></g></g><g fill="#504939" fill-opacity="1"><g transform="translate(279.12797, 228.741371)"><g><path d="M 2.921875 0 L 2.921875 -30.0625 L 8.421875 -30.0625 L 22.546875 -8.890625 L 22.546875 -30.0625 L 28.046875 -30.0625 L 28.046875 0 L 22.546875 0 L 8.421875 -21.140625 L 8.421875 0 Z M 2.921875 0 "/></g></g></g><g fill="#ba4b32" fill-opacity="1"><g transform="translate(62.24371, 226.056709)"><g><path d="M 12.375 -27.140625 C 14.863281 -27.140625 16.757812 -26.550781 18.0625 -25.375 C 19.363281 -24.207031 20.015625 -22.664062 20.015625 -20.75 C 20.015625 -19.65625 19.828125 -18.597656 19.453125 -17.578125 C 19.085938 -16.566406 18.351562 -15.476562 17.25 -14.3125 C 16.144531 -13.15625 14.503906 -11.835938 12.328125 -10.359375 L 16.96875 -6.828125 C 18.164062 -5.941406 19.015625 -5.082031 19.515625 -4.25 C 20.023438 -3.414062 20.28125 -2.472656 20.28125 -1.421875 C 20.28125 -0.503906 20.097656 0.429688 19.734375 1.390625 C 19.378906 2.347656 18.742188 3.316406 17.828125 4.296875 L 13.4375 1.203125 C 13.757812 0.828125 14.003906 0.488281 14.171875 0.1875 C 14.347656 -0.101562 14.4375 -0.46875 14.4375 -0.90625 C 14.4375 -1.757812 13.773438 -2.703125 12.453125 -3.734375 L 4.546875 -10.015625 L 4.984375 -12.234375 C 8.191406 -14.160156 10.523438 -15.753906 11.984375 -17.015625 C 13.441406 -18.273438 14.171875 -19.488281 14.171875 -20.65625 C 14.171875 -21.226562 14.003906 -21.691406 13.671875 -22.046875 C 13.347656 -22.410156 12.785156 -22.59375 11.984375 -22.59375 C 11.265625 -22.59375 10.734375 -22.425781 10.390625 -22.09375 C 10.046875 -21.769531 9.875 -21.394531 9.875 -20.96875 C 9.875 -20.507812 10.03125 -20.117188 10.34375 -19.796875 C 10.664062 -19.484375 11.15625 -19.171875 11.8125 -18.859375 L 8.546875 -16.109375 C 7.546875 -16.710938 6.664062 -17.425781 5.90625 -18.25 C 5.144531 -19.082031 4.765625 -20.210938 4.765625 -21.640625 C 4.765625 -22.554688 5.03125 -23.4375 5.5625 -24.28125 C 6.09375 -25.132812 6.914062 -25.820312 8.03125 -26.34375 C 9.144531 -26.875 10.59375 -27.140625 12.375 -27.140625 Z M 12.375 -27.140625 "/></g></g></g><g fill="#ba4b32" fill-opacity="1"><g transform="translate(86.741336, 226.056709)"><g/></g></g><g clip-path="url(#7ab15c3aae)"><path fill="#504939" d="M 184.964844 135.429688 L 177.410156 135.429688 C 177.410156 142.160156 173.65625 146.894531 165.910156 149.902344 C 161.726562 151.449219 157.410156 152.339844 152.960938 152.566406 L 153.046875 156.414062 L 152.960938 160.144531 C 153.203125 160.144531 177.402344 160.886719 177.402344 177.277344 L 184.964844 177.277344 C 184.964844 167.808594 179.847656 160.605469 170.136719 156.355469 C 179.847656 152.109375 184.964844 144.90625 184.964844 135.429688 Z M 184.964844 135.429688 " fill-opacity="1" fill-rule="nonzero"/></g><g clip-path="url(#e1aec30e08)"><path fill="#504939" d="M 221.960938 152.566406 C 217.5 152.339844 213.179688 151.453125 208.992188 149.902344 C 201.265625 146.894531 197.492188 142.160156 197.492188 135.429688 L 189.953125 135.429688 C 189.953125 144.90625 195.074219 152.109375 204.78125 156.355469 C 195.074219 160.605469 189.953125 167.808594 189.953125 177.277344 L 197.511719 177.277344 C 197.511719 170.550781 201.265625 165.816406 209.011719 162.8125 C 213.191406 161.265625 217.507812 160.375 221.960938 160.144531 L 221.871094 156.355469 Z M 221.960938 152.566406 " fill-opacity="1" fill-rule="nonzero"/></g><path fill="#ba4b32" d="M 194.109375 156.355469 C 194.109375 156.792969 194.070312 157.226562 193.984375 157.65625 C 193.898438 158.085938 193.773438 158.503906 193.605469 158.90625 C 193.4375 159.3125 193.234375 159.699219 192.988281 160.0625 C 192.746094 160.425781 192.472656 160.761719 192.164062 161.074219 C 191.855469 161.382812 191.519531 161.660156 191.15625 161.902344 C 190.792969 162.144531 190.410156 162.351562 190.003906 162.519531 C 189.601562 162.6875 189.183594 162.8125 188.757812 162.898438 C 188.328125 162.984375 187.894531 163.027344 187.460938 163.027344 C 187.023438 163.027344 186.589844 162.984375 186.160156 162.898438 C 185.734375 162.8125 185.316406 162.6875 184.914062 162.519531 C 184.511719 162.351562 184.128906 162.144531 183.765625 161.902344 C 183.402344 161.660156 183.066406 161.382812 182.757812 161.074219 C 182.445312 160.761719 182.171875 160.425781 181.929688 160.0625 C 181.6875 159.699219 181.480469 159.3125 181.3125 158.90625 C 181.148438 158.503906 181.019531 158.085938 180.9375 157.65625 C 180.851562 157.226562 180.808594 156.792969 180.808594 156.355469 C 180.808594 155.917969 180.851562 155.480469 180.9375 155.050781 C 181.019531 154.621094 181.148438 154.207031 181.3125 153.800781 C 181.480469 153.394531 181.6875 153.011719 181.929688 152.648438 C 182.171875 152.28125 182.445312 151.945312 182.757812 151.636719 C 183.066406 151.324219 183.402344 151.050781 183.765625 150.804688 C 184.128906 150.5625 184.511719 150.355469 184.914062 150.1875 C 185.316406 150.019531 185.734375 149.894531 186.160156 149.808594 C 186.589844 149.722656 187.023438 149.679688 187.460938 149.679688 C 187.894531 149.679688 188.328125 149.722656 188.757812 149.808594 C 189.183594 149.894531 189.601562 150.019531 190.003906 150.1875 C 190.410156 150.355469 190.792969 150.5625 191.15625 150.804688 C 191.519531 151.050781 191.855469 151.324219 192.164062 151.636719 C 192.472656 151.945312 192.746094 152.28125 192.988281 152.648438 C 193.234375 153.011719 193.4375 153.394531 193.605469 153.800781 C 193.773438 154.207031 193.898438 154.621094 193.984375 155.050781 C 194.070312 155.480469 194.109375 155.917969 194.109375 156.355469 Z M 194.109375 156.355469 " fill-opacity="1" fill-rule="nonzero"/></svg>